# xmcd
# 
# Track frame offsets:
#     150
#     11203
#     21210
#     33859
#     45513
#     57812
#     67882
#     78633
#     88912
#     96743
#     108688
#     120768
#     130685
#     142094
#     150248
#     157867
#     167661
#     177023
# 
# Disc length: 2483
# 
# Revision: 1
# Processed by: cddbd v1.5.1PL2 Copyright (c) Steve Scherf et al.
# Submitted via: BonkEnc v1.0beta4
# 
DISCID=df09b112
DTITLE=Johnny Cash - The Solid Gold Collection [CD1]
DYEAR=2005
DGENRE=Country
TTITLE0=Cry, Cry, Cry
TTITLE1=Hey Porter
TTITLE2=Folsom Prison Blues
TTITLE3=So Doggone Lonesome
TTITLE4=I walk the Line
TTITLE5=Get Rhythm
TTITLE6=Train of Love
TTITLE7=There you go
TTITLE8=Rock and Roll Ruby
TTITLE9=Home of the Blues
TTITLE10=Give my Love to Rose
TTITLE11=Ballad of a Teenage Queen
TTITLE12=Big River
TTITLE13=Guess Things Happen that Way
TTITLE14=Come in Stranger
TTITLE15=Rock Island Line
TTITLE16=Luther played the Boogie
TTITLE17=Down the Street to 301
EXTD=
EXTT0=
EXTT1=
EXTT2=
EXTT3=
EXTT4=
EXTT5=
EXTT6=
EXTT7=
EXTT8=
EXTT9=
EXTT10=
EXTT11=
EXTT12=
EXTT13=
EXTT14=
EXTT15=
EXTT16=
EXTT17=
PLAYORDER=
